inDegrees=yes
name=ik_appendData_wink_l
DataType=double
version=3
OpenSimVersion=4.5
endheader
time	pelvis_tilt	pelvis_list	pelvis_rotation	pelvis_tx	pelvis_ty	pelvis_tz	hip_flexion_r	hip_adduction_r	hip_rotation_r	knee_angle_r	knee_angle_r_beta	ankle_angle_r	subtalar_angle_r	mtp_angle_r	hip_flexion_l	hip_adduction_l	hip_rotation_l	knee_angle_l	knee_angle_l_beta	ankle_angle_l	subtalar_angle_l	mtp_angle_l	lumbar_extension	lumbar_bending	lumbar_rotation	arm_flex_r	arm_add_r	arm_rot_r	elbow_flex_r	pro_sup_r	wrist_flex_r	wrist_dev_r	arm_flex_l	arm_add_l	arm_rot_l	elbow_flex_l	pro_sup_l	wrist_flex_l	wrist_dev_l
150	-2.374197519758727	89.65488156628638	2.371576785124412	0	0.9399999999999999	0	44.94942662567991	-10.00027781649681	0	59.99195672652657	1.047057169591848	-5.000014309522149	0	0	44.94942662567991	-10.00027781649681	0	59.99195672652657	1.047057169591848	-5.000014309522149	0	0	-0.452720496066207	-1.585788485553296	-0.001810021384474783	0	-14.21207778185626	0	75.14500355893415	44.99913186993953	0	0	-89.75148081593365	71.39509970109378	89.2629300056567	50.20901720122161	44.99913186993953	0	0
151	-2.123870064515717	89.65498150267204	2.124629069046859	0	0.9399999999999999	0	44.95327309933179	-10.00023180427302	0	59.99253254441484	1.04706721950989	-5.000011567145383	0	0	44.95327309933179	-10.00023180427302	0	59.99253254441484	1.04706721950989	-5.000011567145383	0	0	-0.002498800394960764	0.28027810212508	-0.004005678762361606	0	-14.24874471286955	0	75.13398840307501	44.99925823649497	0	0	-81.80440277997387	71.73372014042191	73.72312739931458	50.16401770314785	44.99925823649497	0	0
152	-2.037145013396051	89.65617950639052	2.035894147930014	0	0.9399999999999999	0	44.95599379019	-10.00020324809156	0	59.99297605669048	1.047074960259373	-5.000009903830745	0	0	44.95599379019	-10.00020324809156	0	59.99297605669048	1.047074960259373	-5.000009903830745	0	0	0.005367958486377639	0.317369030722569	-0.0007651178870619151	0	-14.27624935263561	0	75.12619715466492	44.99933854668382	0	0	-73.05692411086085	70.20267158839721	56.59845675378818	50.77938700379462	44.99933854668382	0	0
153	-2.017732329037597	89.65929116124454	2.01902202658914	0	0.9399999999999999	0	44.95671513101467	-10.00019534801292	0	59.99309130465173	1.047076971715753	-5.000009439764848	0	0	44.95671513101467	-10.00019534801292	0	59.99309130465173	1.047076971715753	-5.000009439764848	0	0	-0.0003619061846133469	0.3210613453875972	0.005512485906631034	0	-14.28345268580619	0	75.12413144932752	44.99936057231853	0	0	-71.40459449090005	68.16348618627637	52.20083038038833	52.11606197171994	44.99936057231853	0	0
154	-1.998593563163912	89.65488105244587	1.997870791933813	0	0.9399999999999999	0	44.95729657838131	-10.0001889978994	0	59.99318434904901	1.047078595646836	-5.000009066629854	0	0	44.95729657838131	-10.0001889978994	0	59.99318434904901	1.047078595646836	-5.000009066629854	0	0	0.01105105119943566	0.3319074541875898	5.85659280631671e-05	0	-14.28927613130358	0	75.12246635720342	44.99937827690216	0	0	-65.46216252027078	67.04667780508561	47.70187061377491	51.06862402869773	44.99937827690216	0	0
155	-2.001481836985641	89.65504670556332	1.999236231599421	0	0.9399999999999999	0	44.95736061563153	-10.00018801475888	0	59.99319253577704	1.047078738532195	-5.000009004269294	0	0	44.95736061563153	-10.00018801475888	0	59.99319253577704	1.047078738532195	-5.000009004269294	0	0	0.01282313148913719	0.3311816292309152	-0.008773990408063112	0	-14.28982269120199	0	75.12228297358725	44.99938084107919	0	0	-65.88127458207663	66.1362813064399	49.43820784974804	50.59951326297778	44.99938084107919	0	0
156	-1.99898575469594	89.65208303970746	1.999769583324042	0	0.9399999999999999	0	44.95738777150599	-10.00018759859433	0	59.99319601561909	1.047078799266897	-5.000008977888564	0	0	44.95738777150599	-10.00018759859433	0	59.99319601561909	1.047078799266897	-5.000008977888564	0	0	0.009627413976231789	0.3421249459760428	0.008873425272450126	0	-14.29005460233705	0	75.12220520724924	44.9993819269924	0	0	-65.40521856520346	65.4451824280635	49.58374097295561	52.10806582066596	44.9993819269924	0	0
157	-1.992830444576031	89.65245610150832	1.993600044192515	0	0.9399999999999999	0	44.95745660143044	-10.00018653810838	0	59.99320479468224	1.047078952490454	-5.000008910606393	0	0	44.95745660143044	-10.00018653810838	0	59.99320479468224	1.047078952490454	-5.000008910606393	0	0	-0.01106250741390927	0.3538914171475489	-0.004220020639109937	0	-14.29064063068861	0	75.12200809884203	44.99938469170856	0	0	-63.67391346030676	65.96968058057742	47.24444238615352	51.43242440772735	44.99938469170856	0	0
158	-1.990839312000963	89.65545669984432	1.990383566057593	0	0.9399999999999999	0	44.95752267997974	-10.00018552350739	0	59.99321322543113	1.04707909963478	-5.00000884633027	0	0	44.95752267997974	-10.00018552350739	0	59.99321322543113	1.04707909963478	-5.00000884633027	0	0	0.01043202739063263	0.3286578796177423	-0.0008969022547411701	0	-14.29120363872633	0	75.12181886955449	44.99938733946305	0	0	-65.36613510703175	65.45709536762172	49.54687990791763	52.1085470785626	44.99938733946305	0	0
159	-1.99442811887934	89.65079879789997	1.986790894088263	0	0.9399999999999999	0	44.95752624806583	-10.00018546908031	0	59.99321368201081	1.047079107603599	-5.000008842889153	0	0	44.95752624806583	-10.00018546908031	0	59.99321368201081	1.047079107603599	-5.000008842889153	0	0	-0.002512773698194313	0.3443695913309586	-0.003062405259895676	0	-14.29123411330618	0	75.12180865161851	44.99938748171762	0	0	-65.36193685528775	65.48239062269437	49.55979621741136	52.0985358017529	44.99938748171762	0	0
160	-1.989412109123057	89.65351989044785	1.990632352273786	0	0.9399999999999999	0	44.95759531068995	-10.00018441250293	0	59.99322249113197	1.047079261351767	-5.000008776070208	0	0	44.95759531068995	-10.00018441250293	0	59.99322249113197	1.047079261351767	-5.000008776070208	0	0	0.002269637727950668	0.3315892241960881	-0.0008205279822587109	0	-14.29182278193384	0	75.12161087683035	44.99939024221221	0	0	-63.66528075787086	65.82222999120107	47.69184177758784	52.60348969208886	44.99939024221221	0	0
161	-1.990653385452982	89.65278609514625	1.989107918228087	0	0.9399999999999999	0	44.95759929695467	-10.00018435188755	0	59.99322300097899	1.047079270250277	-5.000008772243929	0	0	44.95759929695467	-10.00018435188755	0	59.99322300097899	1.047079270250277	-5.000008772243929	0	0	-0.003388391604470997	0.3400467483671901	-0.004250010867819419	0	-14.29185683583247	0	75.12159946135534	44.99939040080615	0	0	-63.66751876268577	65.84348966292221	47.69898738820809	52.58998207357415	44.99939040080615	0	0
162	-1.989254510488887	89.65407836690204	1.990118432053756	0	0.9399999999999999	0	44.95760339924382	-10.00018428949906	0	59.99322352552351	1.047079279405306	-5.000008768305819	0	0	44.95760339924382	-10.00018428949906	0	59.99322352552351	1.047079279405306	-5.000008768305819	0	0	-0.004076904184042796	0.3417181709457881	-0.007415804908423019	0	-14.2918918752111	0	75.12158771362093	44.99939056403937	0	0	-63.67133482834952	65.85014962326522	47.70249866189292	52.5831558503313	44.99939056403937	0	0
163	-1.991184801511971	89.66017247676673	1.981430118398944	0	0.9399999999999999	0	44.9576679702556	-10.0001833059245	0	59.99323176486355	1.047079423208918	-5.000008706219025	0	0	44.9576679702556	-10.0001833059245	0	59.99323176486355	1.047079423208918	-5.000008706219025	0	0	0.003800802764690884	0.3190139844643221	0.01358319431472992	0	-14.29244272550787	0	75.12140280147371	44.99939313707736	0	0	-59.94254119319844	67.11233257335755	44.28420850866558	51.58613358462581	44.99939313707736	0	0
164	-1.975969243465198	89.65037908071922	1.973628762854209	0	0.9399999999999999	0	44.95796584955576	-10.00017985455186	0	59.99327745836668	1.047080220710994	-5.000008500865921	0	0	44.95796584955576	-10.00017985455186	0	59.99327745836668	1.047080220710994	-5.000008500865921	0	0	0.008359261647869315	0.3481028968497836	-0.006939094643050949	0	-14.29534938968661	0	75.12054976386067	44.99940265006511	0	0	-54.96309186664284	70.296974868776	39.61420652541853	50.5125525960981	44.99940265006511	0	0
165	-1.933130455813428	89.65217654731474	1.930918842077441	0	0.9399999999999999	0	44.958717051539	-10.00017160709974	0	59.99339516951263	1.047082275158057	-5.000008017787517	0	0	44.958717051539	-10.00017160709974	0	59.99339516951263	1.047082275158057	-5.000008017787517	0	0	0.007084136020994932	0.3467362334963393	0.003323571219920478	0	-14.30281920539969	0	75.11839854507554	44.99942566613541	0	0	-37.97325126932999	75.39627203763081	22.7983903056211	48.92716760995454	44.99942566613541	0	0
166	-1.973824261299422	89.65443835262595	1.971577604798338	0	0.9399999999999999	0	44.95990901030628	-10.00015759483153	0	59.99357107725795	1.047085345327393	-5.000007187854493	0	0	44.95990901030628	-10.00015759483153	0	59.99357107725795	1.047085345327393	-5.000007187854493	0	0	0.009899214865044666	0.3225094030428604	0.004040483949944006	0	-14.31425629295029	0	75.11498513021917	44.99946432189314	0	0	2.218740401231731	79.69880301862706	-18.59285954541988	49.04687013396132	44.99946432189314	0	0
167	-0.05267660221698461	89.653801644599	0.05185468233147995	0	0.9399999999999999	0	44.96175127851443	-10.00013548832194	0	59.99382178374837	1.047089720981107	-5.000005901054693	0	0	44.96175127851443	-10.00013548832194	0	59.99382178374837	1.047089720981107	-5.000005901054693	0	0	0.006450930603785129	0.2996999346377694	0.01772817584246158	0	-14.33121432936578	0	75.10970942334106	44.9995257214122	0	0	58.75167490709364	75.88999958242773	-75.84378005601522	49.95767073510699	44.9995257214122	0	0
168	-0.01206066160349773	89.65759078217214	0.01852293842974508	0	0.9399999999999999	0	44.96150010143911	-10.00013694594959	0	59.99377687411759	1.047088937160183	-5.000005967239136	0	0	44.96150010143911	-10.00013694594959	0	59.99377687411759	1.047088937160183	-5.000005967239136	0	0	0.01285006595030448	-1.060408781496097	0.4103692516857134	0	-14.32829744761746	0	75.11042871988703	44.99952086825595	0	0	73.41352016464054	67.07851764919432	-89.78928918421236	52.43692007032448	44.99952086825595	0	0
169	-0.01047953417807425	89.65926639491481	0.02288394616147954	0	0.9399999999999999	0	44.96209629599693	-10.00013170061273	0	59.99387394838537	1.047090631425775	-5.000005684686158	0	0	44.96209629599693	-10.00013170061273	0	59.99387394838537	1.047090631425775	-5.000005684686158	0	0	0.03229564228000589	-3.35404928253025	0.9427473215898765	0	-14.33456272302719	0	75.10872139611887	44.99953641108456	0	0	75.41311462067175	58.59039822553792	-89.9394686563169	57.11167558601471	44.99953641108456	0	0
170	-0.002583432639456241	89.65639982183238	0.009257306060839009	0	0.9399999999999999	0	44.96247375976723	-10.00012844252546	0	59.99393519911023	1.047091700452593	-5.000005510475182	0	0	44.96247375976723	-10.00012844252546	0	59.99393519911023	1.047091700452593	-5.000005510475182	0	0	0.04076243033246921	-3.466967770278759	0.7961953373519616	0	-14.33854570678906	0	75.107640452213	44.99954611673295	0	0	78.06971205132449	51.55391565968853	-89.95055899680777	60.41354532427933	44.99954611673295	0	0
171	0.01353326304393988	89.66067799639366	-0.0103369868990277	0	0.9399999999999999	0	44.96270829752151	-10.00012647207533	0	59.99397279161428	1.047092356565563	-5.000005406420382	0	0	44.96270829752151	-10.00012647207533	0	59.99397279161428	1.047092356565563	-5.000005406420382	0	0	0.02438652194065979	-2.142466579717554	0.4233517525790056	0	-14.34102578420761	0	75.10696880587055	44.99955203733081	0	0	80.00700090030334	48.89486237789055	-89.92712117088858	66.23306839185878	44.99955203733081	0	0
172	0.03026704710962055	89.65408620582478	-0.02694833194903704	0	0.9399999999999999	0	44.96289002486496	-10.00012488561944	0	59.99400144893582	1.047092856730179	-5.000005321695262	0	0	44.96289002486496	-10.00012488561944	0	59.99400144893582	1.047092856730179	-5.000005321695262	0	0	0.01511171513770186	-1.709536275537449	0.3353508488042233	0	-14.34292283745163	0	75.10644839284609	44.99955676172177	0	0	80.51411584763453	48.31257175316954	-89.91335833324406	72.60718025101689	44.99955676172177	0	0
173	0.02759933493912268	89.65424328459693	-0.03463369943748405	0	0.9399999999999999	0	44.962903362641	-10.00012472885784	0	59.99400318146812	1.047092886968572	-5.000005312739523	0	0	44.962903362641	-10.00012472885784	0	59.99400318146812	1.047092886968572	-5.000005312739523	0	0	0.0164743022795288	-2.187219211720009	0.38770375192671	0	-14.34304377598999	0	75.1064101974349	44.99955720207996	0	0	81.48079493080016	47.80343854167432	-89.93025120218189	72.6166409327811	44.99955720207996	0	0
